<svg xmlns="http://www.w3.org/2000/svg" width="px" height="px" viewBox="0 0 129 35"><defs><clipPath id="a"><path d="M0 27h128.918v7.973H0Zm0 0"/></clipPath></defs><path d="M56.363 1.016c0-.563.453-1.016 1.012-1.016h14.168c.559 0 1.012.453 1.012 1.016v14.203c0 .558-.453 1.011-1.012 1.011H57.375a1.01 1.01 0 0 1-1.012-1.011Zm0 0" style="stroke:none;fill-rule:nonzero;fill:#0278fe;fill-opacity:1"/><path d="M72.555 3.043H56.363v1.016h16.192Zm0 0" style="stroke:none;fill-rule:nonzero;fill:#2a2c2f;fill-opacity:1"/><path d="M62.941 3.043H61.93V16.23h1.011Zm0 0" style="stroke:none;fill-rule:nonzero;fill:#2a2c2f;fill-opacity:1"/><g clip-path="url(#a)"><path d="m60.063 34.871.425-1.414h2.43l.422 1.414h2.156l-2.43-7.379h-2.73l-2.426 7.38Zm.878-2.91.73-2.438h.06l.734 2.438Zm5.266 2.91h1.996v-2.437h.688l1.296 2.437h2.168l-1.492-2.754c.782-.379 1.25-1.094 1.25-2.117 0-1.57-1.097-2.508-2.73-2.508h-3.176Zm1.996-3.992v-1.79h.703c.703 0 1.121.278 1.121.911 0 .629-.418.879-1.12.879Zm4.559-1.774h2.215v5.766h1.968v-5.766h2.211v-1.613h-6.394Zm13.941.82h2.02c-.153-1.48-1.496-2.534-3.235-2.534-1.98 0-3.593 1.37-3.593 3.804 0 2.336 1.46 3.778 3.609 3.778 1.926 0 3.305-1.184 3.305-3.2V30.75h-3.262v1.426h1.336c-.016.64-.469 1.05-1.363 1.05-1.036 0-1.567-.761-1.567-2.058 0-1.281.574-2.031 1.578-2.031.625 0 1.051.289 1.172.793m4.723 4.941.422-1.414h2.43l.425 1.414h2.152l-2.425-7.379H91.7l-2.43 7.38Zm.875-2.91.734-2.438h.059l.73 2.438Zm5.265 2.91h4.973v-1.613h-2.977v-5.766h-1.996Zm5.782 0h4.972v-1.613h-2.976v-5.766h-1.996Zm5.777 0h5.29v-1.613h-3.29v-1.27h3.031v-1.613h-3.031v-1.27h3.305v-1.613h-5.305Zm6.297 0h1.996v-2.437h.687l1.297 2.437h2.168l-1.492-2.754c.781-.379 1.25-1.094 1.25-2.117 0-1.57-1.098-2.508-2.73-2.508h-3.176Zm1.996-3.992v-1.79h.703c.703 0 1.121.278 1.121.911 0 .629-.418.879-1.12.879Zm4.113-3.387 2.703 5.059v2.32h1.98v-2.32l2.704-5.059h-2.227l-1.437 2.996h-.059l-1.437-2.996Zm-66.363 0v7.38h-1.664l-2.66-3.88H50.8v3.88h-2v-7.38H50.5l2.613 3.863h.059v-3.863Zm-12.66 7.38v-7.38h5.304v1.613h-3.304v1.27h3.031v1.613h-3.031v1.27h3.289v1.613Zm-7.145-5.767v-1.613h6.395v1.613h-2.215v5.766h-1.969v-5.766Zm-6.093 5.766v-7.379h5.304v1.613h-3.308v1.27H34.3v1.613h-3.035v1.27h3.293v1.613Zm-5.782 0v-7.379h2v5.766h2.973v1.613Zm-6.64 0v-7.379h3.18c.542 0 1.023.11 1.433.324.398.207.73.524.953.91q.345.591.344 1.376.001.79-.356 1.37c-.23.387-.574.7-.98.895q-.626.312-1.469.313H18.06v-1.555h1.492c.234 0 .437-.043.601-.125a.9.9 0 0 0 .383-.355q.136-.231.137-.543-.001-.316-.137-.543a.9.9 0 0 0-.383-.344 1.36 1.36 0 0 0-.601-.121h-.703v5.777Zm-.946-7.379v7.38h-1.996v-7.38Zm-8.754 7.38v-7.38h3.176q.82.001 1.434.301.614.298.953.86.345.562.344 1.347 0 .791-.352 1.336a2.2 2.2 0 0 1-.98.824c-.422.184-.91.274-1.473.274H8.355v-1.555h1.493q.356.001.601-.086a.76.76 0 0 0 .383-.285q.139-.196.137-.508c0-.21-.043-.383-.137-.516a.73.73 0 0 0-.383-.293 1.6 1.6 0 0 0-.601-.097h-.703v5.777Zm4.309-3.388 1.84 3.387h-2.168l-1.797-3.387ZM0 29.105v-1.613h6.395v1.613H4.184v5.766h-1.97v-5.766Zm0 0" style="stroke:none;fill-rule:nonzero;fill:#fff;fill-opacity:1"/></g></svg>